<svg version="1.2" xmlns="http://www.w3.org/2000/svg" viewBox="0 0 267 89" width="267" height="89">
	<title>prime-icon-svg</title>
	<style>
		.s0 { fill: #2193c2 } 
		.s1 { fill: #f8991d } 
	</style>
	<g id="g8">
		<g id="g10">
			<path id="path12" fill-rule="evenodd" class="s0" d="m137.7 18.1c-0.9 1.2-1.2 2.9-1 4.4 0.1 1.3 0.8 2.6 2 3.5 1.4 1.1 3.3 1.3 5.1 1.1 1.6-0.2 3.1-0.9 4-2.2 0.8-1 1-2.3 1-3.5 0-1.4-0.5-2.8-1.5-3.8-1.1-1-2.5-1.5-3.9-1.6h-1.4c-1.6 0.1-3.2 0.8-4.3 2.1zm0 15.1c-0.2 0.4-0.3 0.8-0.3 1.3q0 16.4 0 32.8c0 0.5 0.1 1.1 0.4 1.5 0.4 0.4 0.9 0.5 1.4 0.5q3.5 0 7 0c0.6-0.1 1.2-0.1 1.5-0.6 0.3-0.4 0.3-1 0.3-1.5q0-16.2 0-32.4c0-0.5 0-1.2-0.3-1.7-0.3-0.4-1-0.5-1.5-0.5q-3.4 0-6.8 0-0.4 0-0.8 0.1c-0.3 0.1-0.7 0.2-0.9 0.5z"/>
			<path id="path14" fill-rule="evenodd" class="s0" d="m75.4 36c3.8-3.5 9.3-5.1 14.4-4.2 3.1 0.5 5.9 2.2 7.8 4.6 2.6 3 3.8 7.1 4.2 11.1 0.3 4 0 8.2-1.4 12-1.2 3.2-3.2 6.3-6.1 8.2-2.3 1.6-5.1 2.4-7.9 2.3-3.6 0-7.3-1.1-10-3.4q0 7.9 0 15.9c0 0.4-0.1 0.9-0.5 1.2-0.3 0.3-0.8 0.3-1.3 0.3q-3.5 0-6.9 0c-0.6 0-1.2-0.1-1.5-0.5-0.3-0.3-0.2-0.8-0.3-1.2v-48.1c0-1.2 0.7-1.5 1.7-1.6q2.6 0 5.1 0c0.4 0 0.8 0 1.2 0.2 0.5 0.3 0.8 0.7 1 1.2q0.2 1 0.5 2zm1 5.4c0 6.3 0 12.5 0 18.8 2.6 1.6 5.9 2.3 8.9 1.8 2-0.4 3.7-1.7 4.6-3.5 1.2-2.6 1.3-5.5 1.3-8.4 0-1.8-0.2-3.7-0.7-5.5-0.4-1.2-1-2.4-1.8-3.3-1.1-1-2.5-1.6-4-1.8-2.9-0.3-5.8 0.4-8.3 1.9z"/>
			<path id="path16" fill-rule="evenodd" class="s0" d="m171.9 33c2.1-0.9 4.4-1.4 6.7-1.4 2.1-0.1 4.3 0.1 6.2 1.1 1.5 0.7 2.8 2 3.6 3.4 2.3-1.5 4.8-2.9 7.5-3.6 2.1-0.7 4.3-1 6.5-0.9 1.9 0 3.9 0.4 5.6 1.4 1.6 0.9 2.9 2.4 3.7 4.2 0.5 1.3 0.8 2.9 0.9 4.4q0 13 0 26c-0.1 0.5-0.2 1.1-0.6 1.4-0.3 0.2-0.8 0.2-1.2 0.3q-3.5 0-7 0c-0.5-0.1-1-0.1-1.3-0.5-0.4-0.3-0.5-0.9-0.5-1.4q0-11.7 0-23.4c0-1.2-0.3-2.4-1.1-3.2-0.8-0.9-1.9-1.2-3-1.2-2.8 0-5.5 0.7-8 1.9q0 13 0 26c0 0.6-0.2 1.2-0.7 1.5-0.4 0.2-0.9 0.3-1.3 0.3q-3.4 0-6.8 0c-0.4-0.1-0.9-0.1-1.3-0.4-0.4-0.4-0.5-0.9-0.5-1.4q0-11.6 0-23.3c0-1.2-0.2-2.5-1.1-3.4-0.7-0.8-1.8-1.1-2.9-1.2-2.8-0.1-5.7 0.7-8.2 1.9q0 13.1 0 26.1c0 0.5-0.2 1.1-0.6 1.4-0.4 0.2-0.9 0.3-1.3 0.3q-3.4 0-6.8 0c-0.5 0-1.1-0.1-1.4-0.5-0.4-0.4-0.4-0.9-0.4-1.4q0-16.5 0-32.9c0-0.5 0-1.1 0.4-1.4 0.4-0.4 1-0.5 1.5-0.5q2.6 0 5.2 0c0.8 0 1.5 0.5 1.7 1.2 0.3 0.8 0.5 1.5 0.8 2.3 1.8-1.2 3.7-2.3 5.7-3.1z"/>
			<path id="path18" fill-rule="evenodd" class="s0" d="m229.1 32.9c2.5-1 5.2-1.4 7.9-1.3 2.3 0 4.7 0.3 6.9 1.2 2.2 0.8 4.1 2.3 5.3 4.2 1.1 1.6 1.7 3.6 1.8 5.5 0.1 2.1-0.2 4.4-1.4 6.3-1.1 1.8-2.9 3.1-4.9 3.9-2.5 1.1-5.3 1.4-8 1.6-2.9 0-5.9-0.1-8.7-0.8 0.2 2.2 0.7 4.5 2.2 6.2 1.2 1.4 3.2 2.2 5.1 2.5 2.3 0.4 4.7 0.3 7 0 1.7-0.3 3.4-0.7 5.1-1.1 0.5-0.2 1.1-0.3 1.6 0 0.4 0.3 0.5 0.9 0.5 1.4q0 1.8 0 3.6c0 0.6-0.1 1.3-0.6 1.7-0.8 0.6-1.7 0.8-2.6 1.1-2.5 0.8-5.1 1.3-7.8 1.4-2.4 0.1-4.9 0-7.3-0.5-2.1-0.5-4.2-1.4-6.1-2.7-1.8-1.2-3.3-2.9-4.3-4.9-1.2-2.1-1.8-4.4-2.1-6.8-0.4-2.7-0.4-5.4 0-8.2 0.5-3.9 2.1-7.8 4.9-10.6 1.5-1.6 3.4-2.9 5.5-3.7zm1.5 8.1c-1.6 1.7-2.2 4-2.5 6.2 2.3 0.5 4.6 0.6 6.9 0.6 1.3 0 2.7-0.2 3.9-0.7 0.9-0.3 1.7-0.9 2.1-1.8 0.4-0.9 0.4-2 0.3-3-0.1-1-0.7-2.1-1.6-2.6-1.2-0.8-2.6-0.9-4-0.9-1.9 0-3.8 0.7-5.1 2.2z"/>
			<path id="path20" fill-rule="evenodd" class="s0" d="m125.2 33.1c1.5-0.6 3.1-0.9 4.8-0.8 0.7 0 1.5-0.1 2.1 0.3 0.4 0.4 0.4 1 0.4 1.5q0 2.9 0 5.8c0 0.6 0 1.4-0.6 1.7-0.8 0.5-1.7 0.3-2.5 0.2-2.6-0.2-5.1 0.2-7.6 0.8q-1.3 0.3-2.5 0.8 0 12.1 0 24.1c0 0.5-0.1 1-0.4 1.4-0.4 0.3-0.9 0.3-1.3 0.4q-3.5 0-7 0c-0.5 0-1.1-0.1-1.4-0.5-0.4-0.4-0.4-0.9-0.4-1.4q0-16.5 0-33c0-0.5 0.1-1.1 0.4-1.4 0.4-0.3 0.9-0.4 1.4-0.4q2.6 0 5.1 0c0.5 0 1 0.1 1.4 0.4 0.4 0.3 0.6 0.8 0.7 1.2q0.5 1.9 0.9 3.8c1.9-1.9 4-3.9 6.5-4.9z"/>
			<path id="path22" fill-rule="evenodd" class="s1" d="m51.2 32.7h10.5c1 0 1.6 1.1 0.9 2.1l-28.6 44.1c-0.6 0.8-0.8 1.3-1.6 1.3-0.9 0-1.1-0.5-1.7-1.3l-19.4-24c-0.7-1.1-0.1-2.2 0.9-2.2h10.4l9.1 11.5z"/>
		</g>
	</g>
</svg>