<svg version="1.2" xmlns="http://www.w3.org/2000/svg" viewBox="0 0 1224 1224" width="1224" height="1224">
	<title>amazon-seeklogo</title>
	<style>
		tspan { white-space:pre } 
		.s0 { fill: #ff9900 } 
		.s1 { fill: #000000 } 
		.t2 { font-size: 180px;fill: #000000;font-weight: 600;font-family: "EncodeSansSemiCondensed-SemiBold", "Encode Sans SemiCondensed SmBd" } 
	</style>
	<g id="Layer 1">
		<g id="&lt;Group&gt;">
			<g id="&lt;Group&gt;">
				<path id="&lt;Path&gt;" class="s0" d="m680.6 660.4c-33.1 24.4-81.1 37.4-122.4 37.4-57.9 0-110.1-21.4-149.6-57-3.1-2.8-0.3-6.6 3.4-4.5 42.6 24.8 95.3 39.7 149.7 39.7 36.6 0 77-7.6 114.1-23.3 5.6-2.4 10.3 3.7 4.8 7.7z"/>
				<path id="&lt;Path&gt;" class="s0" d="m694.4 644.7c-4.3-5.4-28-2.6-38.7-1.3-3.2 0.4-3.7-2.4-0.8-4.5 18.9-13.3 50-9.4 53.6-5 3.6 4.5-1 35.6-18.7 50.5-2.8 2.3-5.4 1.1-4.1-2 3.9-9.9 12.9-32.3 8.7-37.7z"/>
			</g>
			<path id="&lt;Path&gt;" class="s1" d="m656.5 544.9v-12.9c0-2 1.4-3.3 3.2-3.3h58c1.8 0 3.3 1.4 3.3 3.3v11.1c0 1.8-1.6 4.2-4.3 8.1l-30.1 42.9c11.2-0.3 23 1.4 33.1 7.1 2.3 1.2 2.9 3.1 3.1 5v13.8c0 1.9-2.1 4.1-4.3 3-17.8-9.4-41.5-10.4-61.2 0.1-2 1-4.2-1.1-4.2-3v-13.1c0-2.1 0.1-5.7 2.2-8.9l34.8-49.9h-30.3c-1.8 0-3.3-1.3-3.3-3.3z"/>
			<path id="&lt;Path&gt;" class="s1" d="m445 625.7h-17.6c-1.7-0.1-3-1.4-3.1-3v-90.5c0-1.8 1.5-3.3 3.4-3.3h16.4c1.7 0.1 3.1 1.4 3.2 3.1v11.8h0.3c4.3-11.4 12.4-16.8 23.2-16.8 11.1 0 18 5.4 22.9 16.8 4.3-11.4 14-16.8 24.4-16.8 7.4 0 15.4 3.1 20.4 9.9 5.6 7.7 4.4 18.7 4.4 28.4v57.1c0 1.8-1.5 3.3-3.4 3.3h-17.6c-1.8-0.1-3.2-1.5-3.2-3.3v-47.9c0-3.9 0.4-13.4-0.5-17-1.3-6.1-5.2-7.8-10.3-7.8-4.3 0-8.8 2.9-10.6 7.4-1.8 4.6-1.6 12.2-1.6 17.4v47.9c0 1.8-1.5 3.3-3.4 3.3h-17.6c-1.8-0.1-3.2-1.5-3.2-3.3v-47.9c0-10.1 1.6-25-10.9-25-12.6 0-12.1 14.5-12.1 25l-0.1 47.9c0 1.8-1.5 3.3-3.4 3.3z"/>
			<path id="&lt;Compound Path&gt;" fill-rule="evenodd" class="s1" d="m770.9 527c26.2 0 40.3 22.5 40.3 51.1 0 27.6-15.6 49.5-40.3 49.5-25.7 0-39.6-22.5-39.6-50.5 0-28.2 14.1-50.1 39.6-50.1zm0.2 18.5c-13 0-13.8 17.7-13.8 28.8 0 11-0.2 34.6 13.6 34.6 13.7 0 14.3-19 14.3-30.6 0-7.7-0.3-16.8-2.6-24-2-6.3-5.9-8.8-11.5-8.8z"/>
			<path id="&lt;Path&gt;" class="s1" d="m845.2 625.7h-17.6c-1.8-0.1-3.1-1.5-3.1-3.3l-0.1-90.5c0.2-1.7 1.6-3 3.4-3h16.4c1.5 0.1 2.8 1.2 3.1 2.6v13.8h0.3c5-12.4 11.9-18.3 24.1-18.3 7.9 0 15.6 2.9 20.5 10.7 4.6 7.2 4.6 19.4 4.6 28.2v56.9c-0.2 1.6-1.6 2.9-3.3 2.9h-17.7c-1.6-0.1-3-1.3-3.2-2.9v-49.1c0-9.9 1.2-24.4-11-24.4-4.3 0-8.2 2.9-10.2 7.3-2.5 5.5-2.8 11-2.8 17.1v48.7c0 1.8-1.5 3.3-3.4 3.3z"/>
			<path id="&lt;Compound Path&gt;" fill-rule="evenodd" class="s1" d="m628 625.5c-1.1 1-2.8 1.1-4.1 0.4-5.9-4.9-6.9-7.2-10.1-11.8-9.7 9.9-16.6 12.8-29.1 12.8-14.9 0-26.4-9.1-26.4-27.5 0-14.3 7.7-24 18.8-28.8 9.6-4.2 22.9-4.9 33.2-6.1v-2.3c0-4.2 0.3-9.1-2.2-12.8-2.1-3.2-6.3-4.5-9.9-4.5-6.7 0-12.7 3.4-14.2 10.6-0.3 1.5-1.4 3.1-3 3.2l-17.1-1.9c-1.5-0.3-3.1-1.4-2.6-3.6 3.9-20.8 22.6-27 39.4-27 8.6 0 19.8 2.3 26.5 8.7 8.6 8.1 7.8 18.7 7.8 30.4v27.5c0 8.2 3.4 11.8 6.6 16.3 1.2 1.6 1.4 3.5 0 4.7-3.6 3-10 8.6-13.5 11.7zm-17.8-46.8c-12.8 0-26.2 2.7-26.2 17.7 0 7.7 3.9 12.8 10.7 12.8 4.9 0 9.4-3 12.2-8 3.5-6.1 3.3-11.8 3.3-18.7z"/>
			<path id="&lt;Compound Path&gt;" fill-rule="evenodd" class="s1" d="m396.9 625.5c-1.2 1-2.9 1.1-4.2 0.4-5.8-4.9-6.9-7.2-10.1-11.8-9.7 9.9-16.5 12.8-29.1 12.8-14.8 0-26.3-9.1-26.3-27.5 0-14.3 7.7-24 18.8-28.8 9.5-4.2 22.9-4.9 33.1-6.1v-2.3c0-4.2 0.3-9.1-2.1-12.8-2.2-3.2-6.3-4.5-9.9-4.5-6.7 0-12.7 3.4-14.2 10.6-0.3 1.5-1.5 3.1-3.1 3.2l-17-1.9c-1.5-0.3-3.1-1.4-2.7-3.6 3.9-20.8 22.7-27 39.4-27 8.6 0 19.8 2.3 26.6 8.7 8.6 8.1 7.8 18.7 7.8 30.4v27.5c0 8.2 3.4 11.8 6.6 16.3 1.1 1.6 1.4 3.5 0 4.7-3.6 3-10 8.6-13.6 11.7zm-17.7-46.8c-12.8 0-26.3 2.7-26.3 17.7 0 7.7 4 12.8 10.8 12.8 4.9 0 9.4-3 12.2-8 3.4-6.1 3.3-11.8 3.3-18.7z"/>
		</g>
	</g>
	<text id="e" style="transform: matrix(1,0,0,1,905,626)" >
		<tspan x="0" y="0" class="t2">e
</tspan>
	</text>
</svg>